{"title":"Kylie Minogue - Absolutely Anything and Anything At All (2015)","uid":12305542,"size":76014255,"categoryP":"video","categoryS":"music_videos","magnet":"?xt=urn:btih:944b738304ca19909e381452a3cc290c6f1e9e82&amp;dn=Kylie+Minogue+-+Absolutely+Anything+and+Anything+At+All+%282015%29&amp;tr=udp%3A%2F%2Ftracker.openbittorrent.com%3A80&amp;tr=udp%3A%2F%2Fopen.demonii.com%3A1337&amp;tr=udp%3A%2F%2Ftracker.coppersurfer.tk%3A6969&amp;tr=udp%3A%2F%2Fexodus.desync.com%3A6969","seeders":1,"leechers":0,"uploader":"MeRaDil","files":1,"time":1440788563,"description":"KYLIE MINOGUE - ABSOLUTELY ANYTHING AND ANYTHING AT ALL\n\n &lt;a href=&quot;\nhttp://gifyu.com/images/kylie-2.png&quot; rel=&quot;nofollow&quot; target=&quot;_NEW&quot;&gt;\nhttp://gifyu.com/images/kylie-2.png&lt;/a&gt;\n &lt;a href=&quot;\nhttp://gifyu.com/images/kylie-3.png&quot; rel=&quot;nofollow&quot; target=&quot;_NEW&quot;&gt;\nhttp://gifyu.com/images/kylie-3.png&lt;/a&gt;\n &lt;a href=&quot;\nhttp://gifyu.com/images/kylie-4.png&quot; rel=&quot;nofollow&quot; target=&quot;_NEW&quot;&gt;\nhttp://gifyu.com/images/kylie-4.png&lt;/a&gt;\n\n\nGeneral\nKylie Minogue - Absolutely Anything and Anything At All\nFormat                                   : MPEG-4\nFormat profile                           : Base Media\nCodec ID                                 : isom\nFile size                                : 72.5 MiB\nDuration                                 : 3mn 10s\nOverall bit rate                         : 3 199 Kbps\nMusicVid name                            : Absolutely Anything and Anything At All\nPerformer                                : Kylie Minogue\nGenre                                    : Pop/Soundtrack\nContentType                              : Music Video\nRecorded date                            : 2015\nComment                                  : from the movie Absolutely Anything\nRating                                   : Unrated\nMake                                     : MeRaDil\nArtist url                               : http://kylie.com/\nRelease date                             : UK/Australia . august 7 . 2015\n &lt;a href=&quot;\nhttps://thepiratebay.se/user/MeRaDil&quot; rel=&quot;nofollow&quot; target=&quot;_NEW&quot;&gt;\nhttps://thepiratebay.se/user/MeRaDil&lt;/a&gt;\n\nVideo\nID                                       : 1\nFormat                                   : AVC\nFormat/Info                              : Advanced Video Codec\nFormat profile                           : &lt;a class=&quot;__cf_email__&quot; href=&quot;/cdn-cgi/l/email-protection&quot; data-cfemail=&quot;4800212f2008047c6678&quot;&gt;[email&amp;#160;protected]&lt;/a&gt;&lt;script data-cfhash='f9e31' type=&quot;text/javascript&quot;&gt;\n/* &lt;![CDATA[ */!function(){try{var t=&quot;currentScript&quot;in document?document.currentScript:function(){for(var t=document.getElementsByTagName(&quot;script&quot;),e=t.length;e--;)if(t[e].getAttribute(&quot;data-cfhash&quot;))return t[e]}();if(t&amp;&amp;t.previousSibling){var e,r,n,i,c=t.previousSibling,a=c.getAttribute(&quot;data-cfemail&quot;);if(a){for(e=&quot;&quot;,r=parseInt(a.substr(0,2),16),n=2;a.length-n;n+=2)i=parseInt(a.substr(n,2),16)^r,e+=String.fromCharCode(i);e=document.createTextNode(e),c.parentNode.replaceChild(e,c)}t.parentNode.removeChild(t);}}catch(u){}}()/* ]]&gt; */&lt;/script&gt;\nFormat settings, CABAC                   : Yes\nFormat settings, ReFrames                : 2 frames\nCodec ID                                 : avc1\nCodec ID/Info                            : Advanced Video Coding\nDuration                                 : 3mn 10s\nBit rate                                 : 2 936 Kbps\nWidth                                    : 1 920 pixels\nHeight                                   : 1 080 pixels\nDisplay aspect ratio                     : 16:9\nFrame rate mode                          : Constant\nFrame rate                               : 25.000 fps\nColor space                              : YUV\nChroma subsampling                       : 4:2:0\nBit depth                                : 8 bits\nScan type                                : Progressive\nBits/(Pixel*Frame)                       : 0.057\nStream size                              : 66.5 MiB (92%)\n\nAudio\nID                                       : 2\nFormat                                   : AAC\nFormat/Info                              : Advanced Audio Codec\nFormat profile                           : LC\nCodec ID                                 : 40\nDuration                                 : 3mn 10s\nBit rate mode                            : Constant\nBit rate                                 : 256 Kbps\nChannel(s)                               : 2 channels\nChannel positions                        : Front: L R\nSampling rate                            : 44.1 KHz\nCompression mode                         : Lossy\nStream size                              : 5.80 MiB (8%)\n\nKylie Minogue * Promo * Soundtrack","torrent":{"xt":"urn:btih:944b738304ca19909e381452a3cc290c6f1e9e82","amp;dn":"Kylie+Minogue+-+Absolutely+Anything+and+Anything+At+All+%282015%29","amp;tr":["udp%3A%2F%2Ftracker.openbittorrent.com%3A80","udp%3A%2F%2Fopen.demonii.com%3A1337","udp%3A%2F%2Ftracker.coppersurfer.tk%3A6969","udp%3A%2F%2Fexodus.desync.com%3A6969"],"infoHash":"944b738304ca19909e381452a3cc290c6f1e9e82","infoHashBuffer":{"type":"Buffer","data":[148,75,115,131,4,202,25,144,158,56,20,82,163,204,41,12,111,30,158,130]},"announce":[],"urlList":[]}}